<svg width="11" height="10" viewBox="0 0 11 10" fill="none" xmlns="http://www.w3.org/2000/svg">
<path d="M4.16635 0.284247C4.54535 -0.0947491 5.15995 -0.0947491 5.53901 0.284247C5.91807 0.663243 5.91807 1.27784 5.53901 1.6569L3.31337 3.88254L10.0294 3.88293C10.5655 3.88293 11.0001 4.31758 11 4.85362C11 5.38966 10.5654 5.82418 10.0293 5.82418L3.31363 5.82379L5.53908 8.0493C5.91814 8.4283 5.91814 9.0429 5.53908 9.42196C5.34955 9.61149 5.1012 9.70629 4.85278 9.70629C4.60437 9.70629 4.35595 9.61149 4.16648 9.42196L0.283989 5.5394C0.101771 5.35724 -0.000468928 5.11045 -0.000468928 4.85297C-0.000468928 4.5955 0.101835 4.34864 0.28386 4.16668L4.16635 0.284247Z" fill="white"/>
</svg>
