<svg width="14" height="14" viewBox="0 0 14 14" fill="none" xmlns="http://www.w3.org/2000/svg">
<path d="M5.81773 6.3408C6.01104 6.42171 6.21156 6.48421 6.41661 6.52747V13.9318C6.29085 13.8994 6.16845 13.8552 6.05106 13.7996L1.38443 11.723C0.972392 11.5396 0.622339 11.2407 0.376635 10.8624C0.130932 10.4842 0.000109728 10.0429 0 9.59188V4.41193C0.000618342 4.20419 0.0293987 3.9975 0.0855547 3.79749L5.81773 6.3408ZM9.19325 4.60637L2.85442 1.62751L1.38443 2.28084C1.11932 2.39737 0.879053 2.56371 0.676661 2.77083L6.28439 5.26748C6.50969 5.36747 6.75345 5.41912 6.99994 5.41912C7.24643 5.41912 7.49019 5.36747 7.71549 5.26748L9.19325 4.60637ZM13.3232 2.77083C13.1208 2.56371 12.8806 2.39737 12.6154 2.28084L7.94882 0.204187C7.65059 0.0696028 7.32713 0 6.99994 0C6.67274 0 6.34929 0.0696028 6.05106 0.204187L4.26996 0.997514L10.6088 3.97638L13.3232 2.77083ZM13.9143 3.79749L11.1843 5.01081V6.91635C11.1843 7.07106 11.1229 7.21943 11.0135 7.32883C10.9041 7.43822 10.7557 7.49968 10.601 7.49968C10.4463 7.49968 10.2979 7.43822 10.1885 7.32883C10.0791 7.21943 10.0177 7.07106 10.0177 6.91635V5.52414L8.18215 6.3408C7.98758 6.41821 7.78737 6.48062 7.58327 6.52747V13.9318C7.70903 13.8994 7.83143 13.8552 7.94882 13.7996L12.6154 11.723C13.0275 11.5396 13.3775 11.2407 13.6232 10.8624C13.8689 10.4842 13.9998 10.0429 13.9999 9.59188V4.41193C13.9993 4.20419 13.9705 3.9975 13.9143 3.79749Z" fill="#1E2A38"/>
</svg>
