<svg width="12" height="12" viewBox="0 0 12 12" fill="none" xmlns="http://www.w3.org/2000/svg">
<path d="M10.6916 0H9.57007V1.12149C9.57007 1.34579 9.38316 1.49532 9.19624 1.49532C9.00933 1.49532 8.82241 1.34579 8.82241 1.12149V0H2.84112V1.12149C2.84112 1.34579 2.6542 1.49532 2.46728 1.49532C2.28037 1.49532 2.09345 1.34579 2.09345 1.12149V0H0.971961C0.411214 0 0 0.48598 0 1.12149V2.46728H11.9626V1.12149C11.9626 0.48598 11.2897 0 10.6916 0ZM0 3.25233V10.0934C0 10.7663 0.411214 11.2149 1.00934 11.2149H10.7289C11.3271 11.2149 12 10.7289 12 10.0934V3.25233H0ZM3.3271 9.53269H2.4299C2.28037 9.53269 2.13084 9.42054 2.13084 9.23363V8.29905C2.13084 8.14952 2.24299 7.99998 2.4299 7.99998H3.36448C3.51401 7.99998 3.66354 8.11213 3.66354 8.29905V9.23363C3.62616 9.42054 3.51401 9.53269 3.3271 9.53269ZM3.3271 6.16821H2.4299C2.28037 6.16821 2.13084 6.05606 2.13084 5.86915V4.93457C2.13084 4.78504 2.24299 4.6355 2.4299 4.6355H3.36448C3.51401 4.6355 3.66354 4.74765 3.66354 4.93457V5.86915C3.62616 6.05606 3.51401 6.16821 3.3271 6.16821ZM6.31774 9.53269H5.38317C5.23363 9.53269 5.0841 9.42054 5.0841 9.23363V8.29905C5.0841 8.14952 5.19625 7.99998 5.38317 7.99998H6.31774C6.46728 7.99998 6.61681 8.11213 6.61681 8.29905V9.23363C6.61681 9.42054 6.50466 9.53269 6.31774 9.53269ZM6.31774 6.16821H5.38317C5.23363 6.16821 5.0841 6.05606 5.0841 5.86915V4.93457C5.0841 4.78504 5.19625 4.6355 5.38317 4.6355H6.31774C6.46728 4.6355 6.61681 4.74765 6.61681 4.93457V5.86915C6.61681 6.05606 6.50466 6.16821 6.31774 6.16821ZM9.30839 9.53269H8.37381C8.22428 9.53269 8.07475 9.42054 8.07475 9.23363V8.29905C8.07475 8.14952 8.1869 7.99998 8.37381 7.99998H9.30839C9.45792 7.99998 9.60746 8.11213 9.60746 8.29905V9.23363C9.60746 9.42054 9.49531 9.53269 9.30839 9.53269ZM9.30839 6.16821H8.37381C8.22428 6.16821 8.07475 6.05606 8.07475 5.86915V4.93457C8.07475 4.78504 8.1869 4.6355 8.37381 4.6355H9.30839C9.45792 4.6355 9.60746 4.74765 9.60746 4.93457V5.86915C9.60746 6.05606 9.49531 6.16821 9.30839 6.16821Z" fill="#1E2A38"/>
</svg>
