<svg width="21" height="20" viewBox="0 0 21 20" fill="none" xmlns="http://www.w3.org/2000/svg">
<path d="M12.6537 0.970388C12.2115 0.84278 11.7496 1.0978 11.622 1.54C11.4944 1.98219 11.7494 2.4441 12.1916 2.57171C14.8642 3.34295 16.9723 5.45101 17.7437 8.12349C17.8713 8.56568 18.3332 8.82068 18.7754 8.69306C19.2176 8.56543 19.4726 8.10351 19.345 7.66132C18.4148 4.43862 15.8765 1.90041 12.6537 0.970388Z" fill="#306A8E" style="fill:#306A8E;fill:color(display-p3 0.1882 0.4157 0.5569);fill-opacity:1;"/>
<path d="M12.2034 5.03055C11.7798 4.85066 11.2905 5.04824 11.1106 5.47187C10.9307 5.89549 11.1283 6.38474 11.5519 6.56463C12.5393 6.9839 13.3315 7.77614 13.7508 8.76345C13.9307 9.18707 14.4199 9.38465 14.8435 9.20475C15.2672 9.02485 15.4647 8.53561 15.2849 8.11199C14.6968 6.72724 13.5881 5.61859 12.2034 5.03055Z" fill="#306A8E" style="fill:#306A8E;fill:color(display-p3 0.1882 0.4157 0.5569);fill-opacity:1;"/>
<path d="M5.72381 2.01033C5.49015 1.59114 5.11406 1.27386 4.64183 1.17626C4.16466 1.07763 3.68503 1.22311 3.29084 1.54439C1.86054 2.71015 0.949842 4.57788 1.34509 6.53723C1.58804 7.74162 1.9928 8.92994 2.81707 10.3672C4.4713 13.2516 7.06053 15.8423 9.94832 17.4984C11.3856 18.3227 12.5739 18.7275 13.7783 18.9704C15.7376 19.3657 17.6054 18.455 18.7711 17.0247C19.0924 16.6305 19.2379 16.1509 19.1393 15.6737C19.0417 15.2015 18.7244 14.8254 18.3052 14.5917L16.9697 13.8473C16.478 13.5732 16.064 13.3424 15.7043 13.1918C15.3226 13.032 14.9462 12.937 14.5301 12.9804C14.1139 13.0238 13.7652 13.1944 13.4247 13.4295C13.1038 13.6512 12.7464 13.9623 12.3217 14.3321L11.0648 15.4263C10.8396 15.6224 10.727 15.7204 10.5862 15.7294C10.4455 15.7384 10.3252 15.658 10.0848 15.4973C8.03388 14.1265 6.18793 12.2799 4.81828 10.2306C4.65758 9.99021 4.57722 9.86999 4.58618 9.72924C4.59514 9.58849 4.69318 9.47588 4.88925 9.25066L5.98343 7.99384C6.35318 7.56915 6.66434 7.21176 6.88601 6.89077C7.12116 6.55028 7.2917 6.20159 7.3351 5.78545C7.3785 5.36932 7.28356 4.99294 7.12373 4.61126C6.97305 4.25145 6.74232 3.83754 6.46815 3.34571L5.72381 2.01033Z" fill="#306A8E" style="fill:#306A8E;fill:color(display-p3 0.1882 0.4157 0.5569);fill-opacity:1;"/>
</svg>
