<svg width="21" height="21" viewBox="0 0 21 21" fill="none" xmlns="http://www.w3.org/2000/svg">
<path fill-rule="evenodd" clip-rule="evenodd" d="M3.97261 0.0357166C4.5261 0.150115 4.9669 0.521994 5.24077 1.01332L6.11319 2.57846C6.43454 3.15494 6.70497 3.64006 6.88158 4.06179C7.06892 4.50914 7.18018 4.95029 7.12932 5.43803C7.07846 5.92577 6.87857 6.33447 6.60296 6.73355C6.34314 7.10976 5.97844 7.52866 5.54506 8.02642L3.36905 10.5259C5.09477 13.3545 7.64299 15.9038 10.4745 17.6313L12.974 15.4553C13.4717 15.0219 13.8906 14.6572 14.2668 14.3974C14.6659 14.1218 15.0746 13.9219 15.5623 13.8711C16.0501 13.8202 16.4912 13.9315 16.9386 14.1188C17.3603 14.2954 17.8454 14.5658 18.4219 14.8872L19.9871 15.7596C20.4784 16.0335 20.8503 16.4743 20.9647 17.0278C21.0803 17.587 20.9097 18.1492 20.5332 18.6112C19.1668 20.2876 16.9777 21.355 14.6812 20.8918C13.2696 20.607 11.8768 20.1326 10.1922 19.1665C6.8075 17.2254 3.77273 14.189 1.83386 10.8082C0.867758 9.1236 0.393347 7.7308 0.108589 6.31917C-0.354669 4.02267 0.712733 1.83355 2.38915 0.467202C2.85118 0.0906322 3.41333 -0.0798763 3.97261 0.0357166ZM11.8391 18.3858C12.9783 18.9472 13.9692 19.2536 14.9709 19.4556C16.6275 19.7898 18.2999 19.0323 19.3975 17.6856C19.5416 17.5088 19.5425 17.3854 19.5299 17.3243C19.5161 17.2575 19.4601 17.1432 19.2737 17.0393L17.7437 16.1865C17.1228 15.8404 16.7095 15.6112 16.3727 15.4702C16.0529 15.3363 15.8694 15.3121 15.7143 15.3282C15.5592 15.3444 15.3846 15.406 15.0994 15.603C14.7989 15.8105 14.4417 16.12 13.9057 16.5867L11.8391 18.3858ZM2.61456 9.16128L4.41367 7.09472C4.88038 6.55863 5.18989 6.20148 5.39741 5.90099C5.5944 5.61575 5.65595 5.44121 5.67213 5.28607C5.68831 5.13093 5.6641 4.94745 5.5302 4.62771C5.38914 4.29086 5.15997 3.87754 4.81391 3.25669L3.96105 1.72664C3.85715 1.54023 3.74289 1.48429 3.67606 1.47048C3.61502 1.45787 3.49158 1.45875 3.31476 1.60287C1.96807 2.70047 1.21058 4.37289 1.54475 6.02947C1.74682 7.03118 2.05321 8.02205 2.61456 9.16128Z" fill="#306A8E"/>
</svg>
