<svg width="17" height="17" viewBox="0 0 17 17" fill="none" xmlns="http://www.w3.org/2000/svg">
<path fill-rule="evenodd" clip-rule="evenodd" d="M6.56157 1.92303e-07H6.48422C5.21739 -9.36465e-06 4.21377 -1.70422e-05 3.41978 0.0938351C2.60463 0.190188 1.93361 0.392467 1.37308 0.852483C1.18291 1.00854 1.00855 1.18291 0.852484 1.37307C0.392468 1.93361 0.190188 2.60463 0.0938356 3.41978C-1.67123e-05 4.21376 -9.17614e-06 5.21739 1.92302e-07 6.48422V6.56157C-9.36465e-06 7.8284 -1.70422e-05 8.83202 0.0938351 9.62601C0.190188 10.4412 0.392467 11.1122 0.852483 11.6727C1.00854 11.8629 1.18291 12.0372 1.37307 12.1933C1.90429 12.6293 2.53475 12.8338 3.29342 12.936C3.90923 13.019 4.6505 13.0391 5.54304 13.0441C5.55334 13.5359 5.57616 13.9679 5.62671 14.3438C5.72239 15.0555 5.92708 15.6547 6.40299 16.1306C6.8789 16.6065 7.47812 16.8112 8.18979 16.9069C8.87526 16.9991 9.74682 16.9991 10.8281 16.9991H11.7055C12.7868 16.9991 13.6584 16.9991 14.3438 16.9069C15.0555 16.8112 15.6547 16.6065 16.1306 16.1306C16.6066 15.6547 16.8112 15.0555 16.9069 14.3438C16.9991 13.6584 16.9991 12.7868 16.9991 11.7055V10.8281C16.9991 9.74682 16.9991 8.87526 16.9069 8.18979C16.8112 7.47812 16.6066 6.8789 16.1306 6.40299C15.6547 5.92708 15.0555 5.72239 14.3438 5.62671C13.9679 5.57616 13.5359 5.55334 13.0441 5.54304C13.0391 4.6505 13.019 3.90923 12.936 3.29342C12.8338 2.53475 12.6293 1.90429 12.1933 1.37308C12.0372 1.18291 11.8629 1.00855 11.6727 0.852484C11.1122 0.392468 10.4412 0.190188 9.62601 0.0938356C8.83203 -1.67123e-05 7.8284 -9.17614e-06 6.56157 1.92303e-07ZM11.858 5.53458C11.8527 4.65681 11.833 3.98872 11.7606 3.4518C11.6746 2.81314 11.5211 2.42346 11.2765 2.12545C11.1698 1.99534 11.0504 1.87604 10.9203 1.76926C10.6061 1.5114 10.19 1.35473 9.4868 1.27162C8.77053 1.18695 7.83705 1.18598 6.5229 1.18598C5.20874 1.18598 4.27526 1.18695 3.55899 1.27162C2.85582 1.35473 2.43966 1.51139 2.12545 1.76926C1.99534 1.87604 1.87604 1.99534 1.76926 2.12545C1.5114 2.43966 1.35473 2.85582 1.27162 3.55899C1.18695 4.27526 1.18598 5.20874 1.18598 6.52289C1.18598 7.83705 1.18695 8.77053 1.27162 9.48679C1.35473 10.19 1.51139 10.6061 1.76926 10.9203C1.87604 11.0504 1.99534 11.1697 2.12545 11.2765C2.42346 11.5211 2.81314 11.6746 3.4518 11.7606C3.98872 11.833 4.65681 11.8527 5.53458 11.858C5.53458 11.8076 5.53458 11.7568 5.53458 11.7055V10.8281C5.53456 9.74681 5.53455 8.87526 5.62671 8.18979C5.72239 7.47811 5.92708 6.8789 6.40299 6.40299C6.8789 5.92708 7.47812 5.72239 8.18979 5.62671C8.87526 5.53455 9.74681 5.53456 10.8281 5.53458H11.7055C11.7568 5.53458 11.8076 5.53458 11.858 5.53458ZM7.24161 7.24161C7.46043 7.02278 7.76766 6.88011 8.34782 6.80211C8.94504 6.72182 9.73657 6.72056 10.8715 6.72056H11.6621C12.7971 6.72056 13.5886 6.72182 14.1858 6.80211C14.766 6.88011 15.0732 7.02278 15.292 7.24161C15.5109 7.46043 15.6535 7.76766 15.7315 8.34782C15.8118 8.94504 15.8131 9.73657 15.8131 10.8715V11.6621C15.8131 12.7971 15.8118 13.5886 15.7315 14.1858C15.6535 14.766 15.5109 15.0732 15.292 15.292C15.0732 15.5109 14.766 15.6535 14.1858 15.7315C13.5886 15.8118 12.7971 15.8131 11.6621 15.8131H10.8715C9.73657 15.8131 8.94504 15.8118 8.34782 15.7315C7.76766 15.6535 7.46043 15.5108 7.24161 15.292C7.02278 15.0732 6.88011 14.766 6.80211 14.1858C6.72182 13.5886 6.72056 12.7971 6.72056 11.6621V10.8715C6.72056 9.73657 6.72182 8.94504 6.80211 8.34782C6.88011 7.76766 7.02278 7.46043 7.24161 7.24161Z" fill="#306A8E"/>
</svg>
