<svg width="16" height="16" viewBox="0 0 16 16" fill="none" xmlns="http://www.w3.org/2000/svg">
<path d="M8.00012 16.0002C12.4173 16.0002 16.0002 12.4173 16.0002 8.00012C16.0002 3.5829 12.4173 0 8.00012 0C3.5829 0 0 3.5829 0 8.00012C0 12.4173 3.5829 16.0002 8.00012 16.0002ZM7.42866 3.42863C7.42866 3.11433 7.68582 2.85717 8.00012 2.85717C8.31442 2.85717 8.57157 3.11433 8.57157 3.42863V7.72583L11.2145 9.84015C11.4602 10.0373 11.5002 10.3973 11.303 10.643C11.1916 10.783 11.0259 10.8573 10.8573 10.8573C10.7316 10.8573 10.6059 10.8173 10.5002 10.7316L7.64299 8.44585C7.5087 8.33726 7.42871 8.17442 7.42871 8.00012V3.42863H7.42866Z" fill="#1E2A38"/>
</svg>
