<svg width="24" height="24" viewBox="0 0 24 24" fill="none" xmlns="http://www.w3.org/2000/svg">
<path d="M17.3342 22.1674H6.05142C3.38176 22.1674 1.21875 19.9947 1.21875 17.325V10.1052C1.21875 8.78012 2.03719 7.11402 3.08946 6.29558L8.3411 2.2034C9.91951 0.975744 12.443 0.917284 14.0799 2.06699L20.1013 6.28584C21.2607 7.09453 22.1668 8.82884 22.1668 10.2416V17.3347C22.1668 19.9947 20.0038 22.1674 17.3342 22.1674ZM9.23748 3.35311L3.98585 7.44529C3.29407 7.99092 2.68024 9.22831 2.68024 10.1052V17.325C2.68024 19.186 4.19045 20.7059 6.05142 20.7059H17.3342C19.1951 20.7059 20.7053 19.1957 20.7053 17.3347V10.2416C20.7053 9.30626 20.0331 8.0104 19.2633 7.48426L13.242 3.26542C12.1312 2.48595 10.2995 2.52493 9.23748 3.35311Z" fill="black"/>
<path d="M11.6917 18.2673C11.2922 18.2673 10.9609 17.936 10.9609 17.5365V14.6136C10.9609 14.2141 11.2922 13.8828 11.6917 13.8828C12.0912 13.8828 12.4224 14.2141 12.4224 14.6136V17.5365C12.4224 17.936 12.0912 18.2673 11.6917 18.2673Z" fill="black"/>
</svg>
