<svg width="20" height="20" viewBox="0 0 20 20" fill="none" xmlns="http://www.w3.org/2000/svg">
<path fill-rule="evenodd" clip-rule="evenodd" d="M4.8781 10.0001C4.8781 7.1713 7.1713 4.8781 10.0001 4.8781C12.8289 4.8781 15.1221 7.1713 15.1221 10.0001C15.1221 12.8289 12.8289 15.1221 10.0001 15.1221C7.1713 15.1221 4.8781 12.8289 4.8781 10.0001ZM10.0001 6.34153C7.97953 6.34153 6.34153 7.97953 6.34153 10.0001C6.34153 12.0207 7.97953 13.6587 10.0001 13.6587C12.0207 13.6587 13.6587 12.0207 13.6587 10.0001C13.6587 7.97953 12.0207 6.34153 10.0001 6.34153Z" fill="#F1F2F2"/>
<path d="M15.3736 5.60982C15.9125 5.60982 16.3493 5.17302 16.3493 4.6342C16.3493 4.09538 15.9125 3.65858 15.3736 3.65858H15.3649C14.8261 3.65858 14.3893 4.09538 14.3893 4.6342C14.3893 5.17302 14.8261 5.60982 15.3649 5.60982H15.3736Z" fill="#F1F2F2"/>
<path fill-rule="evenodd" clip-rule="evenodd" d="M10.0559 2.23161e-07C12.1932 -1.28028e-05 13.8719 -2.21121e-05 15.1826 0.176191C16.5257 0.356766 17.5913 0.734364 18.4286 1.57164C19.2659 2.40892 19.6435 3.47454 19.824 4.81764C20.0002 6.1283 20.0002 7.80702 20.0002 9.9443V10.0559C20.0002 12.1932 20.0002 13.8719 19.824 15.1826C19.6435 16.5257 19.2659 17.5913 18.4286 18.4286C17.5913 19.2659 16.5257 19.6435 15.1826 19.824C13.8719 20.0002 12.1932 20.0002 10.0559 20.0002H9.94434C7.80705 20.0002 6.1283 20.0002 4.81764 19.824C3.47454 19.6435 2.40892 19.2659 1.57164 18.4286C0.734365 17.5913 0.356766 16.5257 0.176191 15.1826C-2.31588e-05 13.8719 -1.28057e-05 12.1932 2.2347e-07 10.0559L2.2347e-07 9.94433C-1.28057e-05 7.80703 -2.31588e-05 6.1283 0.176191 4.81764C0.356766 3.47454 0.734365 2.40892 1.57164 1.57164C2.40892 0.734364 3.47454 0.356766 4.81764 0.176191C6.1283 -2.21121e-05 7.80702 -1.28028e-05 9.9443 2.23161e-07L10.0559 2.23161e-07ZM5.01264 1.62657C3.83182 1.78533 3.12649 2.08639 2.60644 2.60644C2.08639 3.12649 1.78533 3.83182 1.62657 5.01264C1.46499 6.2145 1.46343 7.79484 1.46343 10.0001C1.46343 12.2054 1.46499 13.7857 1.62657 14.9876C1.78533 16.1684 2.08639 16.8737 2.60644 17.3938C3.12649 17.9138 3.83182 18.2149 5.01264 18.3737C6.2145 18.5352 7.79484 18.5368 10.0001 18.5368C12.2054 18.5368 13.7857 18.5352 14.9876 18.3737C16.1684 18.2149 16.8737 17.9138 17.3938 17.3938C17.9138 16.8737 18.2149 16.1684 18.3737 14.9876C18.5352 13.7857 18.5368 12.2054 18.5368 10.0001C18.5368 7.79484 18.5352 6.2145 18.3737 5.01264C18.2149 3.83182 17.9138 3.12649 17.3938 2.60644C16.8737 2.08639 16.1684 1.78533 14.9876 1.62657C13.7857 1.46498 12.2054 1.46343 10.0001 1.46343C7.79484 1.46343 6.2145 1.46498 5.01264 1.62657Z" fill="#F1F2F2"/>
</svg>
