<svg width="14" height="14" viewBox="0 0 14 14" fill="none" xmlns="http://www.w3.org/2000/svg">
<path d="M12.9742 1.07806C11.5931 -0.359354 9.34356 -0.359352 7.96243 1.07806L7.39161 1.67215C7.16201 1.9111 7.1696 2.29093 7.40855 2.52053C7.6475 2.75012 8.02733 2.74254 8.25692 2.50359L8.82775 1.90949C9.73667 0.963535 11.2 0.963534 12.1089 1.90949C13.0308 2.86895 13.0308 4.43408 12.1089 5.39354L9.51737 8.09071C9.37361 8.24033 9.21703 8.3654 9.05215 8.46675C8.16566 9.01162 7.00463 8.89046 6.23619 8.09071C6.11119 7.96061 6.00327 7.81965 5.91229 7.67065C5.73959 7.38783 5.37032 7.29856 5.0875 7.47126C4.80468 7.64395 4.71541 8.01322 4.88811 8.29604C5.02373 8.51815 5.1847 8.72839 5.37087 8.92214C6.5345 10.1332 8.31831 10.3264 9.68053 9.4891C9.9323 9.33435 10.1685 9.14509 10.3827 8.92214L12.9743 6.22497C14.3424 4.80105 14.3424 2.50198 12.9742 1.07806Z" fill="#306A8E"/>
<path d="M8.62958 5.07814C7.24844 3.64073 4.99886 3.64073 3.61772 5.07814L1.02613 7.77531C-0.342044 9.19923 -0.342044 11.4983 1.02613 12.9222C2.40727 14.3596 4.65685 14.3596 6.03799 12.9222L6.60902 12.3279C6.83862 12.089 6.83104 11.7091 6.59209 11.4796C6.35314 11.25 5.97331 11.2575 5.74371 11.4965L5.17268 12.0908C4.26374 13.0368 2.80038 13.0368 1.89145 12.0908C0.969551 11.1313 0.969551 9.56621 1.89145 8.60675L4.48303 5.90958C5.39197 4.96362 6.85533 4.96362 7.76426 5.90958C7.88924 6.03964 7.99714 6.18057 8.0881 6.32952C8.26082 6.61233 8.63009 6.70158 8.9129 6.52887C9.19571 6.35615 9.28496 5.98688 9.11225 5.70407C8.97664 5.48202 8.8157 5.27185 8.62958 5.07814Z" fill="#306A8E"/>
</svg>
