<svg width="20" height="20" viewBox="0 0 20 20" fill="none" xmlns="http://www.w3.org/2000/svg">
<path d="M5.85372 8.04887C5.85372 7.64476 5.52612 7.31715 5.12201 7.31715C4.71789 7.31715 4.39029 7.64476 4.39029 8.04887L4.39029 14.8782C4.39029 15.2823 4.71789 15.6099 5.12201 15.6099C5.52612 15.6099 5.85372 15.2823 5.85372 14.8782L5.85372 8.04887Z" fill="#F1F2F2"/>
<path d="M9.02449 7.31715C9.42852 7.31715 9.75606 7.64461 9.75621 8.0486C10.3677 7.58931 11.1277 7.31715 11.9514 7.31715C13.9719 7.31715 15.6099 8.95516 15.6099 10.9757V14.8782C15.6099 15.2823 15.2823 15.6099 14.8782 15.6099C14.4741 15.6099 14.1465 15.2823 14.1465 14.8782V10.9757C14.1465 9.76339 13.1637 8.78059 11.9514 8.78059C10.739 8.78059 9.75621 9.76339 9.75621 10.9757V14.8782C9.75621 15.2823 9.42861 15.6099 9.02449 15.6099C8.62038 15.6099 8.29278 15.2823 8.29278 14.8782L8.29278 8.04887C8.29278 7.64476 8.62038 7.31715 9.02449 7.31715Z" fill="#F1F2F2"/>
<path d="M6.10549 5.12201C6.10549 5.66083 5.66869 6.09763 5.12987 6.09763H5.12111C4.58229 6.09763 4.14549 5.66083 4.14549 5.12201C4.14549 4.58319 4.58229 4.14639 5.12111 4.14639H5.12987C5.66869 4.14639 6.10549 4.58319 6.10549 5.12201Z" fill="#F1F2F2"/>
<path fill-rule="evenodd" clip-rule="evenodd" d="M10.0559 2.23161e-07L9.94433 2.23161e-07C7.80705 -1.28028e-05 6.1283 -2.21121e-05 4.81764 0.176191C3.47454 0.356766 2.40892 0.734364 1.57164 1.57164C0.734365 2.40892 0.356766 3.47454 0.176191 4.81764C-2.31588e-05 6.1283 -1.28057e-05 7.80703 2.23474e-07 9.94433L2.23474e-07 10.0559C-1.28057e-05 12.1932 -2.31588e-05 13.8719 0.176191 15.1826C0.356766 16.5257 0.734365 17.5913 1.57164 18.4286C2.40892 19.2659 3.47454 19.6435 4.81764 19.824C6.1283 20.0002 7.80702 20.0002 9.9443 20.0002H10.0559C12.1932 20.0002 13.8719 20.0002 15.1826 19.824C16.5257 19.6435 17.5913 19.2659 18.4286 18.4286C19.2659 17.5913 19.6435 16.5257 19.824 15.1826C20.0002 13.8719 20.0002 12.1932 20.0002 10.0559V9.94434C20.0002 7.80705 20.0002 6.1283 19.824 4.81764C19.6435 3.47454 19.2659 2.40892 18.4286 1.57164C17.5913 0.734364 16.5257 0.356766 15.1826 0.176191C13.8719 -2.21121e-05 12.1932 -1.28028e-05 10.0559 2.23161e-07ZM2.60644 2.60644C3.12649 2.08639 3.83182 1.78533 5.01264 1.62657C6.2145 1.46498 7.79484 1.46343 10.0001 1.46343C12.2054 1.46343 13.7857 1.46498 14.9876 1.62657C16.1684 1.78533 16.8737 2.08639 17.3938 2.60644C17.9138 3.12649 18.2149 3.83182 18.3737 5.01264C18.5352 6.2145 18.5368 7.79484 18.5368 10.0001C18.5368 12.2054 18.5352 13.7857 18.3737 14.9876C18.2149 16.1684 17.9138 16.8737 17.3938 17.3938C16.8737 17.9138 16.1684 18.2149 14.9876 18.3737C13.7857 18.5352 12.2054 18.5368 10.0001 18.5368C7.79484 18.5368 6.2145 18.5352 5.01264 18.3737C3.83182 18.2149 3.12649 17.9138 2.60644 17.3938C2.08639 16.8737 1.78533 16.1684 1.62657 14.9876C1.46499 13.7857 1.46343 12.2054 1.46343 10.0001C1.46343 7.79484 1.46499 6.2145 1.62657 5.01264C1.78533 3.83182 2.08639 3.12649 2.60644 2.60644Z" fill="#F1F2F2"/>
</svg>
