<svg width="19" height="21" viewBox="0 0 19 21" fill="none" xmlns="http://www.w3.org/2000/svg">
<path fill-rule="evenodd" clip-rule="evenodd" d="M9.49886 5.35806C7.21223 5.35806 5.35854 7.21175 5.35854 9.49839C5.35854 11.785 7.21223 13.6387 9.49886 13.6387C11.7855 13.6387 13.6392 11.785 13.6392 9.49839C13.6392 7.21175 11.7855 5.35806 9.49886 5.35806ZM6.81983 9.49839C6.81983 8.0188 8.01927 6.81935 9.49886 6.81935C10.9785 6.81935 12.1779 8.0188 12.1779 9.49839C12.1779 10.978 10.9785 12.1774 9.49886 12.1774C8.01927 12.1774 6.81983 10.978 6.81983 9.49839Z" fill="#306A8E"/>
<path fill-rule="evenodd" clip-rule="evenodd" d="M9.49989 0C5.77246 0 2.21634 2.20463 0.727854 5.68411C-0.657406 8.92229 0.0925125 11.678 1.6539 14.0377C2.93405 15.9723 4.80116 17.699 6.48562 19.2567C6.80678 19.5537 7.12145 19.8447 7.42399 20.1297L7.42561 20.1312C7.98579 20.6557 8.7299 20.9452 9.49989 20.9452C10.2699 20.9452 11.014 20.6557 11.5742 20.1312C11.8601 19.8634 12.1565 19.5903 12.4589 19.3117C14.1617 17.7427 16.0551 15.9983 17.3487 14.039C18.9082 11.6768 19.6555 8.91828 18.2719 5.68411C16.7834 2.20463 13.2273 0 9.49989 0ZM2.07137 6.25885C3.31719 3.34663 6.32461 1.46129 9.49989 1.46129C12.6752 1.46129 15.6826 3.34663 16.9284 6.25885C18.0702 8.9279 17.494 11.1666 16.1292 13.2338C14.943 15.0304 13.2055 16.6336 11.4975 18.2095C11.1881 18.495 10.8795 18.7797 10.5754 19.0645C10.2906 19.3311 9.9053 19.4839 9.49989 19.4839C9.09477 19.4839 8.70973 19.3313 8.42498 19.0651C8.10111 18.76 7.77214 18.4553 7.44225 18.1498C5.75605 16.5883 4.04606 15.0048 2.87256 13.2313C1.50638 11.1666 0.928108 8.93135 2.07137 6.25885Z" fill="#306A8E"/>
</svg>
