<svg width="21" height="18" viewBox="0 0 21 18" fill="none" xmlns="http://www.w3.org/2000/svg">
<path fill-rule="evenodd" clip-rule="evenodd" d="M13.3016 0.0358134C11.4012 -0.0119355 9.51935 -0.0119379 7.61895 0.035807L7.56235 0.0372283C6.07862 0.0744822 4.88472 0.104459 3.9279 0.271093C2.92615 0.445552 2.11198 0.780161 1.42417 1.47059C0.739238 2.15813 0.406383 2.96059 0.235243 3.9461C0.0722872 4.88448 0.0474684 6.04925 0.0167236 7.49212L0.0155055 7.54928C-0.00516891 8.51877 -0.0051685 9.48261 0.0155068 10.4521L0.016725 10.5093C0.047471 11.9521 0.0722907 13.1169 0.235247 14.0553C0.406388 15.0408 0.739243 15.8433 1.42417 16.5308C2.11198 17.2212 2.92615 17.5558 3.9279 17.7303C4.88471 17.8969 6.0786 17.9269 7.5623 17.9642L7.61895 17.9656C9.51935 18.0133 11.4012 18.0133 13.3016 17.9656L13.3582 17.9642C14.8419 17.9269 16.0358 17.8969 16.9926 17.7303C17.9944 17.5558 18.8085 17.2212 19.4964 16.5308C20.1813 15.8433 20.5141 15.0408 20.6853 14.0553C20.8482 13.1169 20.8731 11.9521 20.9038 10.5092L20.905 10.4521C20.9257 9.48261 20.9257 8.51878 20.905 7.54929L20.9038 7.49215C20.8731 6.04927 20.8482 4.8845 20.6853 3.94611C20.5141 2.9606 20.1813 2.15814 19.4964 1.47061C18.8085 0.780177 17.9944 0.445567 16.9926 0.271106C16.0358 0.104471 14.8419 0.0744918 13.3582 0.0372347L13.3016 0.0358134ZM7.65561 1.49492C9.53157 1.44779 11.3889 1.44779 13.2649 1.49492C14.8185 1.53396 15.9042 1.56309 16.7422 1.70903C17.5474 1.84927 18.0495 2.08632 18.4623 2.50072C18.6316 2.67062 18.7706 2.85351 18.8851 3.06344L13.1044 6.33886C11.8829 7.03095 11.1417 7.29786 10.4604 7.29786C9.77903 7.29786 9.03781 7.03095 7.81635 6.33886L2.03543 3.06335C2.14995 2.85345 2.28896 2.67058 2.4582 2.5007C2.87103 2.0863 3.37309 1.84925 4.17832 1.70902C5.01634 1.56308 6.10198 1.53395 7.65561 1.49492ZM1.62598 4.50893C1.5253 5.27941 1.50305 6.25325 1.47474 7.5804C1.45451 8.52915 1.45451 9.47223 1.47475 10.421C1.50702 11.9346 1.53143 12.9886 1.6733 13.8056C1.80912 14.5877 2.04249 15.0834 2.4582 15.5007C2.87103 15.9151 3.3731 16.1521 4.17832 16.2924C5.01635 16.4383 6.10198 16.4674 7.65561 16.5065C9.53158 16.5536 11.389 16.5536 13.2649 16.5065C14.8185 16.4674 15.9042 16.4383 16.7422 16.2924C17.5474 16.1521 18.0495 15.9151 18.4623 15.5007C18.878 15.0834 19.1114 14.5877 19.2472 13.8056C19.3891 12.9886 19.4135 11.9346 19.4458 10.421C19.466 9.47224 19.466 8.52916 19.4458 7.58041C19.4175 6.25332 19.3952 5.2795 19.2946 4.50904L13.8239 7.60875C12.5655 8.32178 11.5429 8.75743 10.4604 8.75743C9.37785 8.75743 8.35524 8.32178 7.09682 7.60875L1.62598 4.50893Z" fill="#306A8E"/>
</svg>
