<svg width="23" height="26" viewBox="0 0 23 26" fill="none" xmlns="http://www.w3.org/2000/svg">
<path d="M11.4876 0C10.7048 0 10.1425 0.495015 9.84479 0.793792C9.71998 0.91903 9.60394 1.06569 9.4866 1.214C9.26456 1.49464 9.03783 1.78121 8.7381 1.93976C8.41645 2.10989 8.01571 1.99521 7.67068 1.89646C7.60941 1.87892 7.5499 1.86189 7.4929 1.84705C7.13262 1.75326 6.5835 1.61124 6.00163 1.68869C5.74878 1.72235 5.417 1.80277 5.15995 2.03165C4.85553 2.3027 4.80639 2.63995 4.85091 2.89485C4.90506 3.20497 5.09714 3.45947 5.28568 3.70151L6.36472 5.09079L6.41336 5.15368C6.67526 5.49252 6.93967 5.83463 7.28767 6.09018C7.56141 6.2912 7.9078 6.34852 8.24743 6.34852H14.7277C15.0673 6.34852 15.4137 6.2912 15.6874 6.09018C16.0354 5.83464 16.2998 5.49255 16.5617 5.15372L16.6104 5.09079L17.6894 3.70151C17.878 3.45948 18.0701 3.20497 18.1242 2.89485C18.1687 2.63995 18.1196 2.3027 17.8152 2.03165C17.5581 1.80277 17.2263 1.72235 16.9735 1.68869C16.3916 1.61124 15.8425 1.75326 15.4822 1.84705C15.4252 1.86189 15.3657 1.87892 15.3045 1.89645C14.9594 1.99519 14.5587 2.10989 14.237 1.93976C13.9373 1.78121 13.7106 1.49464 13.4885 1.214C13.3712 1.06569 13.2551 0.91903 13.1303 0.793792C12.8326 0.495015 12.2703 0 11.4876 0Z" fill="white"/>
<path fill-rule="evenodd" clip-rule="evenodd" d="M22.8959 18.9191C22.2267 14.9119 20.256 11.1257 17.3353 8.29872C17.2136 8.18084 17.1527 8.12187 17.0172 8.02299C16.7451 7.8243 16.2586 7.62741 15.9249 7.58091C15.7588 7.55776 15.6394 7.55776 15.4005 7.55776H7.57509C7.33624 7.55776 7.21682 7.55776 7.05073 7.58091C6.717 7.62741 6.23051 7.8243 5.95837 8.023C5.83242 8.11496 5.72055 8.22099 5.60875 8.32921C3.41018 10.4568 0.889987 14.0671 0.0796656 18.9191C-0.262921 20.9704 0.528831 22.7705 1.88949 24.0277C3.23653 25.2723 5.14636 25.9987 7.13822 25.9987H15.8374C17.8292 25.9987 19.7391 25.2723 21.0861 24.0277C22.4468 22.7705 23.2385 20.9704 22.8959 18.9191ZM12.2896 12.7632C12.2896 12.2623 11.8835 11.8562 11.3826 11.8562C10.8818 11.8562 10.4757 12.2623 10.4757 12.7632V12.9004C10.0061 13.0103 9.57261 13.2053 9.20841 13.474C8.61878 13.9091 8.16238 14.5835 8.16238 15.4107C8.16238 16.114 8.41734 16.7959 9.08837 17.2479C9.68266 17.6483 10.483 17.7807 11.3826 17.7807C12.1727 17.7807 12.5847 17.9023 12.7799 18.0297C12.8936 18.1038 12.9993 18.2123 12.9993 18.5807C12.9993 18.8491 12.904 18.9914 12.7001 19.1138C12.4413 19.2693 11.9971 19.3806 11.3826 19.3806C10.7376 19.3806 10.2364 19.1688 9.97286 18.933C9.59962 18.599 9.02626 18.6307 8.69223 19.004C8.35819 19.3772 8.38998 19.9506 8.76321 20.2846C9.21817 20.6918 9.81795 20.9709 10.4757 21.1044V21.2279C10.4757 21.7287 10.8818 22.1348 11.3826 22.1348C11.8835 22.1348 12.2896 21.7287 12.2896 21.2279V21.128C12.7682 21.0535 13.2319 20.9103 13.6341 20.6687C14.3437 20.2425 14.8132 19.5314 14.8132 18.5807C14.8132 17.7298 14.4983 16.9849 13.7708 16.5104C13.1249 16.0891 12.275 15.9668 11.3826 15.9668C10.5999 15.9668 10.2435 15.8391 10.1018 15.7436C10.0367 15.6998 9.97624 15.6502 9.97624 15.4107C9.97624 15.2953 10.0377 15.1163 10.2853 14.9336C10.5327 14.7511 10.9177 14.6108 11.3826 14.6108C12.0294 14.6108 12.4899 14.8762 12.6797 15.1258C12.9828 15.5246 13.5518 15.6022 13.9505 15.2991C14.3493 14.996 14.4269 14.427 14.1237 14.0282C13.6922 13.4604 13.0303 13.0742 12.2896 12.9008V12.7632Z" fill="white"/>
</svg>
