<svg width="19" height="19" viewBox="0 0 19 19" fill="none" xmlns="http://www.w3.org/2000/svg">
<path d="M17.0227 15.6682L16.1742 4.97644C16.1213 4.28762 15.5388 3.74801 14.8479 3.74801H13.172V3.67268C13.172 1.64755 11.5244 0 9.49929 0C7.47416 0 5.82661 1.64755 5.82661 3.67268V3.74801H4.15068C3.45982 3.74801 2.87724 4.28758 2.82454 4.97499L1.97577 15.6697C1.91009 16.526 2.20715 17.3785 2.79073 18.0085C3.37432 18.6386 4.20159 19 5.06042 19H13.9381C14.7969 19 15.6242 18.6386 16.2079 18.0085C16.7914 17.3785 17.0885 16.526 17.0227 15.6682ZM6.93952 3.67268C6.93952 2.26122 8.08787 1.11291 9.49929 1.11291C10.9107 1.11291 12.0591 2.26126 12.0591 3.67268V3.74801H6.93952V3.67268ZM15.3913 17.2523C15.0121 17.6617 14.4961 17.8871 13.9381 17.8871H5.06045C4.50248 17.8871 3.98643 17.6617 3.60725 17.2523C3.2281 16.843 3.04278 16.3111 3.08538 15.7563L3.93407 5.06153C3.94268 4.94902 4.03783 4.86092 4.15068 4.86092H5.82661V6.23155C5.82661 6.53886 6.07577 6.78801 6.38307 6.78801C6.69037 6.78801 6.93952 6.53886 6.93952 6.23155V4.86092H12.0591V6.23155C12.0591 6.53886 12.3082 6.78801 12.6155 6.78801C12.9228 6.78801 13.172 6.53886 13.172 6.23155V4.86092H14.8479C14.9608 4.86092 15.0559 4.94905 15.0647 5.06302L15.9132 15.7548C15.9558 16.3111 15.7705 16.8429 15.3913 17.2523Z" fill="black"/>
<path d="M12.007 9.43642C11.7897 9.21911 11.4374 9.21911 11.2201 9.43642L8.73542 11.9211L7.78 10.9657C7.56273 10.7484 7.21038 10.7484 6.99306 10.9657C6.77575 11.183 6.77575 11.5353 6.99306 11.7526L8.34195 13.1015C8.45061 13.2102 8.59303 13.2646 8.73538 13.2646C8.87774 13.2646 9.0202 13.2102 9.12882 13.1015L12.0069 10.2234C12.2243 10.0061 12.2243 9.65373 12.007 9.43642Z" fill="black"/>
</svg>
