<svg width="18" height="18" viewBox="0 0 18 18" fill="none" xmlns="http://www.w3.org/2000/svg">
<path d="M17.9279 2.99997L14.82 15.4315C14.6442 16.1688 14.223 16.8245 13.6256 17.2911C13.0282 17.7576 12.2901 18.0073 11.5321 17.9993H11.5132C10.7501 18.0036 10.0087 17.7464 9.41218 17.2706C8.81568 16.7948 8.40014 16.129 8.23472 15.3842L7.41985 11.9257L12.5175 6.82798C12.6059 6.73964 12.676 6.63476 12.7238 6.51933C12.7716 6.4039 12.7962 6.28018 12.7962 6.15524C12.7962 6.0303 12.7716 5.90658 12.7238 5.79115C12.676 5.67572 12.6059 5.57084 12.5175 5.4825C12.4292 5.39415 12.3243 5.32407 12.2089 5.27626C12.0935 5.22845 11.9697 5.20384 11.8448 5.20384C11.7199 5.20384 11.5961 5.22845 11.4807 5.27626C11.3653 5.32407 11.2604 5.39415 11.1721 5.4825L6.07436 10.5802L2.61589 9.76532C1.87577 9.5922 1.21539 9.17519 0.740944 8.58136C0.266496 7.98753 0.00555586 7.25138 8.77204e-05 6.49131C-0.00538042 5.73124 0.244941 4.99142 0.710796 4.39082C1.17665 3.79022 1.83096 3.36376 2.56851 3.18001L15.0001 0.0721153C15.4045 -0.0290274 15.8283 -0.0236973 16.2301 0.0875864C16.632 0.19887 16.9981 0.412314 17.2929 0.707132C17.5877 1.00195 17.8012 1.36809 17.9125 1.7699C18.0237 2.17171 18.0291 2.59549 17.9279 2.99997Z" fill="white"/>
</svg>
