<svg width="28" height="28" viewBox="0 0 28 28" fill="none" xmlns="http://www.w3.org/2000/svg">
<g clip-path="url(#clip0_45_20025)">
<path d="M13.968 0C6.266 0 0 6.266 0 13.968C0 21.67 6.266 27.9359 13.968 27.9359C21.67 27.9359 27.936 21.6699 27.936 13.968C27.936 6.26614 21.6699 0 13.968 0ZM21.0159 12.4045L18.2561 15.0948L18.9077 18.8935C18.9754 19.2885 18.8129 19.6879 18.4886 19.9235C18.3051 20.0568 18.0879 20.1246 17.8695 20.1246C17.702 20.1246 17.5336 20.0846 17.3795 20.0037L13.9681 18.2102L10.5566 20.0038C10.2016 20.1905 9.77176 20.1593 9.44751 19.9237C9.12313 19.688 8.96065 19.2886 9.02848 18.8936L9.68006 15.0949L6.91997 12.4045C6.63293 12.1246 6.52972 11.7061 6.65358 11.3249C6.77743 10.9436 7.10702 10.6657 7.50386 10.6081L11.3179 10.0539L13.0235 6.59769C13.201 6.23819 13.5671 6.01056 13.968 6.01056C14.3689 6.01056 14.735 6.23819 14.9125 6.59769L16.6181 10.0539L20.4321 10.6081C20.8288 10.6657 21.1586 10.9436 21.2824 11.3249C21.4063 11.7061 21.3029 12.1248 21.0159 12.4045Z" fill="white"/>
</g>
<defs>
<clipPath id="clip0_45_20025">
<rect width="27.936" height="27.936" fill="white"/>
</clipPath>
</defs>
</svg>
