<svg width="20" height="21" viewBox="0 0 20 21" fill="none" xmlns="http://www.w3.org/2000/svg">
<g clip-path="url(#clip0_46_17770)">
<path d="M12.254 18.4431C11.9254 19.1717 11.7082 19.9625 11.625 20.7917L18.5791 19.3134C18.9077 18.585 19.1247 17.7941 19.2081 16.9648L12.254 18.4431Z" fill="#231F20"/>
<path d="M18.5789 14.8854C18.9075 14.1569 19.1248 13.366 19.208 12.5368L13.791 13.6889V11.4741L18.5788 10.4567C18.9074 9.72822 19.1246 8.93732 19.2078 8.10809L13.7908 9.25922V1.29424C12.9608 1.76029 12.2236 2.38066 11.6244 3.11242V9.71986L9.45792 10.1803V0.210938C8.62788 0.676825 7.89071 1.29735 7.29148 2.02911V10.6407L2.44405 11.6707C2.11544 12.3992 1.89806 13.1901 1.81468 14.0193L7.29148 12.8554V15.6445L1.42202 16.8918C1.0934 17.6203 0.876186 18.4112 0.792969 19.2404L6.93666 17.9348C7.43678 17.8308 7.86663 17.5351 8.1461 17.1282L9.27281 15.4578V15.4575C9.38978 15.2846 9.45792 15.0763 9.45792 14.8518V12.3949L11.6244 11.9345V16.364L18.5788 14.8851L18.5789 14.8854Z" fill="#231F20"/>
</g>
<defs>
<clipPath id="clip0_46_17770">
<rect width="18.415" height="20.5815" fill="white" transform="translate(0.792969 0.210938)"/>
</clipPath>
</defs>
</svg>
