<svg width="33" height="33" viewBox="0 0 33 33" fill="none" xmlns="http://www.w3.org/2000/svg">
<path d="M29.3916 1.87097H3.5998C2.14374 1.87097 0.970936 3.04377 0.970936 4.51473V22.082C0.970936 23.548 2.14374 24.7209 3.5998 24.7209H12.6245C12.1474 24.0649 12.0231 23.2598 12.2269 22.5392H5.01115C4.76268 22.5392 4.56886 22.3405 4.56886 22.082V4.51473C4.56886 4.25636 4.76267 4.0526 5.01115 4.0526H29.3916C29.65 4.0526 29.8488 4.2514 29.8488 4.51473V22.082C29.8488 22.3454 29.65 22.5392 29.3916 22.5392H28.0399V24.7209H29.3916C30.8576 24.7209 32.0304 23.548 32.0304 22.082V4.51473C32.0304 3.04377 30.8576 1.87097 29.3916 1.87097ZM3.05735 14.0925C3.05735 14.2982 2.89041 14.4652 2.68464 14.4652C2.47887 14.4652 2.31192 14.2982 2.31192 14.0925V12.5526C2.31192 12.3468 2.47887 12.1799 2.68464 12.1799C2.89041 12.1799 3.05735 12.3468 3.05735 12.5526V14.0925Z" fill="white"/>
<path d="M26.3902 16.0142C26.7629 16.0142 27.0661 15.7159 27.0661 15.3482V7.35226C27.0661 6.97955 26.7629 6.67641 26.3902 6.67641H8.23157C7.86383 6.67641 7.56069 6.97955 7.56069 7.35226V15.3482C7.56069 15.7159 7.86383 16.0142 8.23157 16.0142H16.1033V15.1296C16.1033 14.0264 16.9332 13.102 17.9967 13.0275C18.0464 13.0225 18.101 13.0225 18.1607 13.0225C19.2838 13.0225 20.2032 13.9418 20.2032 15.0699V16.0142H26.3902ZM15.1319 12.7573C14.9743 12.8858 14.7374 12.8622 14.6083 12.7005L13.2581 11.0228C13.129 10.8627 13.1543 10.6283 13.3149 10.4992C13.4741 10.3691 13.71 10.3948 13.8386 10.5559L15.1887 12.2336C15.3178 12.3938 15.2925 12.6282 15.1319 12.7573ZM18.4858 11.6124C18.4839 11.8172 18.3174 11.9818 18.1131 11.9818C18.1122 11.9818 18.1112 11.9818 18.1097 11.9818C17.904 11.9798 17.7385 11.8114 17.7404 11.6057L17.7584 9.45333C17.7598 9.24853 17.9268 9.08353 18.1311 9.08353H18.134C18.3398 9.08498 18.5053 9.25338 18.5038 9.45915L18.4858 11.6124ZM20.6542 12.2705L22.0324 10.6166C22.164 10.4584 22.3993 10.437 22.5575 10.569C22.7158 10.7011 22.7371 10.9359 22.6051 11.0941L21.2268 12.7481C21.0944 12.9067 20.8592 12.9269 20.7017 12.7956C20.5435 12.6636 20.5222 12.4287 20.6542 12.2705Z" fill="white"/>
<path d="M25.9857 20.4952C25.2646 20.4952 24.6795 21.0803 24.6795 21.8014V20.3963C24.6795 19.67 24.1033 19.0902 23.3733 19.0902C22.6522 19.0902 22.0671 19.6752 22.0671 20.3963V19.1355C22.0671 18.4118 21.4876 17.8293 20.761 17.8293C20.0399 17.8293 19.4548 18.4144 19.4548 19.1355V15.0729C19.4548 14.2935 18.797 13.7093 18.0497 13.7709C17.3575 13.8204 16.8465 14.4343 16.8465 15.1307V23.1035L16.1461 22.1475C15.5536 21.3415 14.4219 21.1713 13.6161 21.7602C12.8085 22.3494 12.6355 23.4825 13.2288 24.2901L17.7036 30.3924C17.7053 30.3951 17.7071 30.3978 17.7088 30.4004C18.0169 30.8668 18.5553 31.1287 19.1143 31.1287H25.0183C25.5805 31.1287 26.1194 30.8622 26.4295 30.3933C26.9737 29.5701 27.2918 28.585 27.2918 27.5246V21.8014C27.2918 21.0651 26.6933 20.4952 25.9857 20.4952ZM25.7932 28.5952C25.5913 29.2936 24.9391 29.7813 24.2063 29.7813H22.7581C22.5523 29.7813 22.3854 29.6144 22.3854 29.4086C22.3854 29.2028 22.5523 29.0359 22.7581 29.0359H24.2063C24.6091 29.0359 24.9667 28.7694 25.0769 28.3885C25.1579 28.1089 25.1987 27.8187 25.1987 27.5246C25.1987 27.3189 25.3656 27.1519 25.5714 27.1519C25.7772 27.1519 25.9441 27.3189 25.9441 27.5246C25.9441 27.8886 25.8932 28.2487 25.7932 28.5952Z" fill="white"/>
</svg>
