<svg width="11" height="11" viewBox="0 0 11 11" fill="none" xmlns="http://www.w3.org/2000/svg">
<g clip-path="url(#clip0_45_19828)">
<path d="M6.24108 1.64692V0.943178H6.96902C7.07694 0.943178 7.16419 0.855739 7.16419 0.748012V0.195166C7.16419 0.0874393 7.07696 0 6.96902 0H3.90274C3.79501 0 3.70757 0.0874393 3.70757 0.195166V0.748036C3.70757 0.855763 3.79501 0.943202 3.90274 0.943202H4.76006V1.64675C2.51321 2.0021 0.795061 3.94702 0.795061 6.29378C0.795061 8.89248 2.90177 10.9992 5.50046 10.9992C8.09915 10.9992 10.2059 8.89248 10.2059 6.29378C10.2059 3.94702 8.48812 2.0021 6.24108 1.64692ZM5.50046 10.0886C3.40799 10.0886 1.70566 8.38623 1.70566 6.29378C1.70566 4.20134 3.40801 2.49898 5.50046 2.49898C7.59312 2.49898 9.29526 4.20134 9.29526 6.29378C9.29526 8.38642 7.59312 10.0886 5.50046 10.0886Z" fill="#1E2A38"/>
<path d="M5.43655 2.89077V6.29469H8.84047C8.84045 4.41474 7.31648 2.89077 5.43655 2.89077Z" fill="#1E2A38"/>
<path d="M5.4361 8.55877H6.04402V9.56694H5.4361V8.55877ZM2.27964 5.81625H3.29211V6.57521H2.27964V5.81625ZM7.85329 7.63528L8.40714 7.95515C8.45631 7.86694 8.50178 7.77619 8.54336 7.68349L8.00492 7.37241L7.85329 7.63528ZM6.84687 8.52734L7.23036 9.18638C7.31681 9.13272 7.40072 9.07553 7.48192 9.01446L7.10916 8.37475L6.84687 8.52734ZM4.09733 9.18833L3.83504 9.03551L4.2199 8.37491L4.48238 8.52754L4.09733 9.18833ZM2.81302 8.01858L2.66138 7.75571L3.3249 7.37241L3.47654 7.63547L2.81302 8.01858ZM3.3243 5.01923L2.66097 4.63593L2.8128 4.37306L3.47613 4.75636L3.3243 5.01923ZM4.21949 4.0167L3.83463 3.35611L4.09712 3.20329L4.48197 3.86389L4.21949 4.0167ZM1.4198 1.86121C1.02401 2.22693 0.999814 2.84441 1.36554 3.24019L2.79875 1.91547C2.43284 1.51969 1.81555 1.49549 1.4198 1.86121Z" fill="#CC912A"/>
</g>
<defs>
<clipPath id="clip0_45_19828">
<rect width="10.8351" height="10.8351" fill="white" transform="scale(1.01514)"/>
</clipPath>
</defs>
</svg>
