<svg width="27" height="22" viewBox="0 0 27 22" fill="none" xmlns="http://www.w3.org/2000/svg">
<path fill-rule="evenodd" clip-rule="evenodd" d="M4.83348 4.74175e-06L13.5756 4.74175e-06C14.3784 -7.15244e-05 15.0997 -0.000139791 15.6835 0.077947C16.3209 0.1632 16.9748 0.361153 17.5104 0.894015C18.046 1.42688 18.2828 2.43569 18.3685 3.0698C23.1851 3.36415 26.9999 7.34352 26.9999 12.2093L27 15.6368V15.6368V15.6369V15.6369C27.0001 15.85 27.0003 16.0587 26.9764 16.2496C26.8027 17.6361 25.1475 18.7517 23.7539 18.9245C23.2258 20.6896 21.5822 21.9767 19.6363 21.9767C17.6905 21.9767 16.0468 20.6896 15.5188 18.9244L11.4812 18.9244C10.9531 20.6896 9.30948 21.9767 7.36363 21.9767C5.41364 21.9767 3.76714 20.6841 3.24271 18.9131C2.81743 18.8748 1.96561 18.7633 1.5341 18.5155C1.06768 18.2476 0.680355 17.8623 0.411067 17.3983C0.161932 16.969 0.0743927 16.5213 0.0358485 16.0982C-5.74117e-05 15.7041 -2.66886e-05 15.2287 7.39979e-06 14.7003L4.76636e-06 4.80851C-7.18959e-05 4.00987 -0.000140512 3.29231 0.0783519 2.7115C0.164047 2.0774 0.363029 1.42688 0.898657 0.894014C1.43429 0.361153 2.08819 0.1632 2.72558 0.0779471C3.3094 -0.000139787 4.03069 -7.15244e-05 4.83348 4.74175e-06ZM19.6372 13.4298C19.2108 13.4298 18.7988 13.4917 18.41 13.6068V5.52117C21.8503 5.82959 24.5463 8.70603 24.5463 12.2089L24.5463 15.8717C24.5463 16.2492 24.31 16.4821 23.7548 16.4821C23.2267 14.717 21.5831 13.4298 19.6372 13.4298ZM5.52362 17.7031C5.52362 16.6916 6.34782 15.8717 7.36452 15.8717C8.38123 15.8717 9.20543 16.6916 9.20543 17.7031C9.20543 18.7145 8.38123 19.5345 7.36452 19.5345C6.34782 19.5345 5.52362 18.7145 5.52362 17.7031ZM19.6372 15.8717C18.6205 15.8717 17.7963 16.6916 17.7963 17.7031C17.7963 18.7145 18.6205 19.5345 19.6372 19.5345C20.6539 19.5345 21.4781 18.7145 21.4781 17.7031C21.4781 16.6916 20.6539 15.8717 19.6372 15.8717ZM7.53488 4.7093C7.53488 4.18913 7.1132 3.76744 6.59302 3.76744C6.07285 3.76744 5.65116 4.18913 5.65116 4.7093L5.65116 9.73225C5.65116 10.2524 6.07285 10.6741 6.59302 10.6741C7.1132 10.6741 7.53488 10.2524 7.53488 9.73225L7.53488 4.7093ZM12.5581 4.7093C12.5581 4.18913 12.1365 3.76744 11.6163 3.76744C11.0961 3.76744 10.6744 4.18913 10.6744 4.7093L10.6744 9.73225C10.6744 10.2524 11.0961 10.6741 11.6163 10.6741C12.1365 10.6741 12.5581 10.2524 12.5581 9.73225L12.5581 4.7093Z" fill="white"/>
</svg>
