<svg width="66" height="66" viewBox="0 0 66 66" fill="none" xmlns="http://www.w3.org/2000/svg">
<circle cx="32.9997" cy="32.9997" r="32.9997" fill="#446FAE"/>
<path fill-rule="evenodd" clip-rule="evenodd" d="M24.033 21.872L32.807 21.872C33.6128 21.8719 34.3367 21.8718 34.9226 21.9502C35.5624 22.0358 36.2187 22.2345 36.7563 22.7693C37.2938 23.3041 37.5315 24.3166 37.6175 24.953C42.4517 25.2484 46.2805 29.2424 46.2805 34.1259L46.2805 37.566V37.566V37.566V37.5661C46.2807 37.78 46.2809 37.9894 46.2568 38.1811C46.0825 39.5726 44.4213 40.6922 43.0226 40.8657C42.4925 42.6373 40.8429 43.9291 38.8899 43.9291C36.937 43.9291 35.2873 42.6372 34.7573 40.8656H30.705C30.175 42.6372 28.5253 43.9291 26.5724 43.9291C24.6152 43.9291 22.9627 42.6317 22.4364 40.8543C22.0095 40.8158 21.1546 40.7039 20.7215 40.4552C20.2534 40.1863 19.8647 39.7996 19.5944 39.3339C19.3443 38.903 19.2565 38.4537 19.2178 38.0291C19.1818 37.6335 19.1818 37.1564 19.1818 36.626L19.1818 26.6981C19.1817 25.8965 19.1817 25.1763 19.2604 24.5934C19.3465 23.957 19.5462 23.3041 20.0838 22.7693C20.6213 22.2345 21.2776 22.0358 21.9174 21.9502C22.5033 21.8718 23.2272 21.8719 24.033 21.872ZM38.8908 35.3509C38.4628 35.3509 38.0494 35.413 37.6591 35.5285V27.4133C41.112 27.7229 43.8179 30.6099 43.8179 34.1255V37.8017C43.8179 38.1806 43.5807 38.4144 43.0234 38.4144C42.4934 36.6428 40.8438 35.3509 38.8908 35.3509ZM24.7256 39.6398C24.7256 38.6247 25.5528 37.8017 26.5733 37.8017C27.5937 37.8017 28.4209 38.6247 28.4209 39.6398C28.4209 40.655 27.5937 41.4779 26.5733 41.4779C25.5528 41.4779 24.7256 40.655 24.7256 39.6398ZM38.8908 37.8017C37.8704 37.8017 37.0432 38.6247 37.0432 39.6398C37.0432 40.655 37.8704 41.4779 38.8908 41.4779C39.9113 41.4779 40.7385 40.655 40.7385 39.6398C40.7385 38.6247 39.9113 37.8017 38.8908 37.8017ZM26.7442 26.5985C26.7442 26.0764 26.321 25.6532 25.7989 25.6532C25.2769 25.6532 24.8536 26.0764 24.8536 26.5985L24.8536 31.6398C24.8536 32.1619 25.2769 32.5851 25.7989 32.5851C26.321 32.5851 26.7442 32.1619 26.7442 31.6398V26.5985ZM31.7859 26.5985C31.7859 26.0764 31.3626 25.6532 30.8406 25.6532C30.3185 25.6532 29.8953 26.0764 29.8953 26.5985L29.8953 31.6398C29.8953 32.1619 30.3185 32.5851 30.8406 32.5851C31.3626 32.5851 31.7859 32.1619 31.7859 31.6398V26.5985Z" fill="white"/>
</svg>
