<svg width="20" height="20" viewBox="0 0 20 20" fill="none" xmlns="http://www.w3.org/2000/svg">
<path fill-rule="evenodd" clip-rule="evenodd" d="M5.12201 4.39029C4.84723 4.39029 4.59561 4.54424 4.47052 4.78889C4.34542 5.03355 4.36794 5.32766 4.52882 5.55042L8.25529 10.7101L4.60461 14.3608C4.31886 14.6466 4.31886 15.1099 4.60461 15.3956C4.89036 15.6814 5.35366 15.6814 5.63941 15.3956L9.12318 11.9118L11.575 15.3066C11.7125 15.4971 11.9332 15.6099 12.1682 15.6099H14.8782C15.153 15.6099 15.4046 15.456 15.5297 15.2113C15.6548 14.9667 15.6323 14.6726 15.4714 14.4498L11.7449 9.29009L15.3956 5.63941C15.6814 5.35366 15.6814 4.89036 15.3956 4.60461C15.1099 4.31886 14.6466 4.31886 14.3608 4.60461L10.877 8.08838L8.42525 4.6936C8.28769 4.50312 8.06703 4.39029 7.83207 4.39029H5.12201ZM13.4472 14.1465H12.5423L6.55307 5.85372H7.45793L13.4472 14.1465Z" fill="#F1F2F2"/>
<path fill-rule="evenodd" clip-rule="evenodd" d="M10.0559 2.23473e-07H9.94433C7.80703 -1.28057e-05 6.1283 -2.31588e-05 4.81764 0.176191C3.47454 0.356766 2.40892 0.734365 1.57164 1.57164C0.734365 2.40892 0.356766 3.47454 0.176191 4.81764C-2.31588e-05 6.1283 -1.28057e-05 7.80703 2.23474e-07 9.94433V10.0559C-1.28057e-05 12.1932 -2.31588e-05 13.8719 0.176191 15.1826C0.356766 16.5257 0.734365 17.5913 1.57164 18.4286C2.40892 19.2659 3.47454 19.6435 4.81764 19.824C6.1283 20.0002 7.80702 20.0002 9.9443 20.0002H10.0559C12.1932 20.0002 13.8719 20.0002 15.1826 19.824C16.5257 19.6435 17.5913 19.2659 18.4286 18.4286C19.2659 17.5913 19.6435 16.5257 19.824 15.1826C20.0002 13.8719 20.0002 12.1932 20.0002 10.0559V9.94434C20.0002 7.80705 20.0002 6.1283 19.824 4.81764C19.6435 3.47454 19.2659 2.40892 18.4286 1.57164C17.5913 0.734365 16.5257 0.356766 15.1826 0.176191C13.8719 -2.31588e-05 12.1932 -1.28057e-05 10.0559 2.23473e-07ZM2.60644 2.60644C3.12649 2.08639 3.83182 1.78533 5.01264 1.62657C6.2145 1.46499 7.79484 1.46343 10.0001 1.46343C12.2054 1.46343 13.7857 1.46499 14.9876 1.62657C16.1684 1.78533 16.8737 2.08639 17.3938 2.60644C17.9138 3.12649 18.2149 3.83182 18.3737 5.01264C18.5352 6.2145 18.5368 7.79484 18.5368 10.0001C18.5368 12.2054 18.5352 13.7857 18.3737 14.9876C18.2149 16.1684 17.9138 16.8737 17.3938 17.3938C16.8737 17.9138 16.1684 18.2149 14.9876 18.3737C13.7857 18.5352 12.2054 18.5368 10.0001 18.5368C7.79484 18.5368 6.2145 18.5352 5.01264 18.3737C3.83182 18.2149 3.12649 17.9138 2.60644 17.3938C2.08639 16.8737 1.78533 16.1684 1.62657 14.9876C1.46499 13.7857 1.46343 12.2054 1.46343 10.0001C1.46343 7.79484 1.46499 6.2145 1.62657 5.01264C1.78533 3.83182 2.08639 3.12649 2.60644 2.60644Z" fill="#F1F2F2"/>
</svg>
