<svg width="23" height="23" viewBox="0 0 23 23" fill="none" xmlns="http://www.w3.org/2000/svg">
<path d="M19.4732 1.03264H10.4038C8.98795 1.03264 7.83612 2.18423 7.83612 3.60054V8.16042H3.52514C2.11027 8.16066 0.959161 9.31225 0.959161 10.7271V16.4288C0.959161 17.8436 2.11027 18.9955 3.52514 18.9955H3.92689V20.7711C3.92689 21.2534 4.20144 21.6736 4.64343 21.8659C4.79723 21.933 4.96014 21.9658 5.1216 21.9658C5.41819 21.9658 5.71093 21.8556 5.93876 21.6443L8.75868 18.9955H12.5972C14.0126 18.9955 15.1639 17.8439 15.1639 16.4288V12.7308L17.0632 14.5101C17.2889 14.7228 17.5821 14.834 17.8794 14.834C18.0392 14.834 18.2007 14.8012 18.3533 14.7353C18.7898 14.5467 19.072 14.1165 19.072 13.6405V11.8698H19.4735C20.8891 11.8701 22.0409 10.7183 22.0409 9.30219V3.60054C22.0409 2.18447 20.8891 1.03264 19.4732 1.03264ZM12.5972 17.6994H8.50235C8.33753 17.6994 8.1787 17.7627 8.05867 17.8753L5.22294 20.5395V18.3474C5.22294 17.9893 4.93283 17.6994 4.57492 17.6994H3.52514C2.82489 17.6994 2.25521 17.13 2.25521 16.4288V10.7271C2.25521 10.0259 2.82489 9.45647 3.52514 9.45647H7.84402C7.92452 10.8007 9.04017 11.8701 10.4038 11.8701H13.8676V16.4288C13.8679 17.13 13.2977 17.6994 12.5972 17.6994ZM20.7448 9.30219C20.7448 10.0034 20.1744 10.574 19.4732 10.574H18.4237C18.0658 10.574 17.7757 10.8639 17.7757 11.2221V13.4028C17.7757 13.4028 14.968 10.7678 14.9627 10.7628L14.9493 10.7501L14.9476 10.752L14.9443 10.7489C14.8242 10.6363 14.6656 10.5743 14.5011 10.5743H10.4038C9.70257 10.5743 9.13216 10.0034 9.13216 9.30243V9.30123H9.13696L9.13216 3.60101C9.13216 2.89981 9.70257 2.32916 10.4038 2.32916H19.4732C20.1744 2.32916 20.7448 2.90005 20.7448 3.60101V9.30219Z" fill="white"/>
<path d="M17.5303 4.46814H12.3466C11.9887 4.46814 11.6986 4.75801 11.6986 5.11616C11.6986 5.47431 11.9887 5.76419 12.3466 5.76419H17.5306C17.8885 5.76419 18.1786 5.47431 18.1786 5.11616C18.1786 4.75801 17.8882 4.46814 17.5303 4.46814Z" fill="white"/>
<path d="M17.5303 7.05768H12.3466C11.9887 7.05768 11.6986 7.34755 11.6986 7.7057C11.6986 8.06385 11.9887 8.35372 12.3466 8.35372H17.5306C17.8885 8.35372 18.1786 8.06385 18.1786 7.7057C18.1786 7.34755 17.8882 7.05768 17.5303 7.05768Z" fill="white"/>
<path d="M5.47557 12.9461C5.39795 12.9714 5.33303 13.0232 5.26835 13.0752C5.15168 13.2043 5.07382 13.3739 5.07382 13.5421C5.07382 13.7103 5.15144 13.8787 5.26835 13.9951C5.39795 14.1242 5.55343 14.1901 5.72185 14.1901C5.8124 14.1901 5.90344 14.1635 5.98105 14.1381C6.05891 14.1115 6.1236 14.0596 6.18828 13.9951C6.30495 13.8787 6.38281 13.7103 6.38281 13.5421C6.38281 13.3739 6.30495 13.2041 6.18828 13.0752C6.00693 12.907 5.72185 12.8423 5.47557 12.9461Z" fill="white"/>
<path d="M8.5733 12.9461C8.32703 12.8424 8.04195 12.9068 7.86059 13.0752C7.74393 13.2044 7.67924 13.374 7.67924 13.5421C7.67924 13.7103 7.74393 13.8787 7.86059 13.9952C7.92528 14.0596 7.9902 14.1116 8.06782 14.1382C8.15861 14.1636 8.23623 14.1902 8.32703 14.1902C8.49568 14.1902 8.65116 14.1243 8.78076 13.9952C8.89743 13.8787 8.97529 13.7103 8.97529 13.5421C8.97529 13.374 8.89743 13.2041 8.78076 13.0752C8.71584 13.0235 8.65116 12.9715 8.5733 12.9461Z" fill="white"/>
<path d="M11.1641 12.9455C11.0086 12.8796 10.827 12.8796 10.6586 12.9455C10.581 12.9708 10.5161 13.0226 10.4514 13.0746C10.3347 13.2037 10.2569 13.3733 10.2569 13.5415C10.2569 13.7097 10.3345 13.8781 10.4514 13.9945C10.581 14.1236 10.7365 14.1895 10.9051 14.1895C10.9957 14.1895 11.0865 14.1629 11.1643 14.1375C11.2422 14.1109 11.3069 14.059 11.3718 13.9945C11.4885 13.8781 11.5532 13.7097 11.5532 13.5415C11.5532 13.3733 11.4882 13.2035 11.3718 13.0746C11.3066 13.0228 11.242 12.9708 11.1641 12.9455Z" fill="white"/>
</svg>
