<svg width="38" height="38" viewBox="0 0 38 38" fill="none" xmlns="http://www.w3.org/2000/svg">
<g clip-path="url(#clip0_45_20101)">
<path d="M27.3125 0H10.6875C4.75 0 0 4.75 0 10.6875V27.3125C0 33.25 4.75 38 10.6875 38H27.3125C33.25 38 38 33.25 38 27.3125V10.6875C38 4.75 33.25 0 27.3125 0Z" fill="#FFEC06"/>
<path d="M19.1188 33.8438C18.2875 33.8438 17.4563 33.725 16.625 33.4875C15.675 33.1313 14.725 32.6562 14.0125 32.1812C13.1813 31.7063 12.2312 31.4688 11.1625 31.4688H11.0438C10.8063 31.4688 10.5688 31.4688 10.2125 31.35H9.975C9.14375 31.2312 8.075 30.875 7.8375 29.45C7.71875 29.45 7.6 29.3313 7.48125 29.3313L6.8875 29.0938C6.4125 28.8563 5.9375 28.7375 5.4625 28.5C4.275 27.9062 4.15625 26.9562 4.15625 26.6C4.15625 26.2437 4.275 25.2938 5.4625 24.5813C6.8875 23.8688 7.8375 23.0375 8.55 22.2063C9.14375 21.6125 9.5 20.9 9.7375 20.1875C9.5 20.0688 9.38125 19.95 9.2625 19.8313C8.90625 19.5938 8.66875 19.3563 8.3125 19.2375C7.95625 19 7.71875 18.7625 7.3625 18.4062C6.53125 17.575 6.4125 16.5063 6.8875 15.4375C7.3625 14.4875 8.19375 13.8938 9.2625 13.8938H9.61875C9.85625 13.8938 10.0938 14.0125 10.3312 14.0125C10.3312 13.1813 10.3313 12.35 10.45 11.5187C10.6875 8.55 12.35 6.29375 15.0813 4.9875C16.625 4.275 17.4563 4.15625 19 4.15625C21.7313 4.15625 23.9875 5.10625 25.7688 7.00625C26.9563 8.19375 27.55 9.7375 27.7875 11.4C27.9062 12.2313 27.9062 13.0625 27.9062 14.0125C28.1437 14.0125 28.5 13.8938 28.7375 13.8938C29.925 13.8938 30.875 14.6063 31.2312 15.5563C31.5875 16.625 31.35 17.8125 30.5188 18.525C30.0438 18.8813 29.6875 19.2375 29.2125 19.5938L28.8562 19.8313C28.7375 19.95 28.5 20.0688 28.3813 20.1875C28.3813 20.1875 28.2625 20.1875 28.2625 20.3062C28.7375 21.4937 29.45 22.5625 30.6375 23.3938C30.9937 23.6313 31.4688 23.9875 31.9438 24.225C32.1812 24.3438 32.5375 24.5812 32.775 24.7C33.9625 25.4125 33.9625 26.3625 33.8438 26.8375C33.725 27.55 33.1312 28.2625 32.4187 28.6187C31.7062 28.8563 30.9937 29.2125 30.2812 29.45C30.0438 30.5187 29.2125 31.35 28.025 31.35H27.9062C27.6688 31.35 27.4312 31.4688 27.075 31.4688H26.8375C25.65 31.4688 24.5812 31.825 23.6313 32.5375C22.2062 33.3687 20.6625 33.8438 19.1188 33.8438Z" fill="white"/>
<path d="M19 4.75C21.6125 4.75 23.6312 5.7 25.2937 7.3625C26.3625 8.55 26.9562 9.85625 27.1938 11.5187C27.3125 12.5875 27.3125 13.6562 27.3125 14.8438C27.4312 14.8438 27.4313 14.8438 27.55 14.725C28.025 14.6062 28.3812 14.4875 28.8562 14.4875H28.975C29.8062 14.4875 30.5187 14.9625 30.7563 15.7937C31.1125 16.625 30.875 17.575 30.1625 18.05C29.6875 18.4062 29.3312 18.7625 28.8562 19L28.5 19.3562C28.3813 19.475 28.2625 19.5938 28.025 19.7125C27.9062 19.8313 27.7875 19.8312 27.6687 19.95L27.55 20.0688V20.1875C28.025 21.6125 28.8562 22.8 30.1625 23.75C30.5187 24.1063 30.9937 24.3438 31.4688 24.5813C31.7062 24.7 32.0625 24.9375 32.3 25.0562C33.1313 25.5312 33.25 26.125 33.1313 26.6C33.0125 27.1938 32.6562 27.6688 32.0625 27.9062C31.2313 28.2625 30.4 28.6187 29.5688 28.8562C29.45 29.925 28.7375 30.6375 27.7875 30.6375C27.6687 30.6375 27.6688 30.6375 27.55 30.6375C27.3125 30.6375 27.075 30.7563 26.8375 30.7563H26.7188C25.4125 30.7563 24.225 31.1125 23.1562 31.825C21.85 32.6562 20.425 33.1313 19 33.1313C18.2875 33.1313 17.4563 33.0125 16.625 32.775C15.675 32.5375 14.8438 31.9438 14.1312 31.5875C13.1812 30.9937 12.2312 30.7563 11.0438 30.7563H10.925C10.6875 30.7563 10.45 30.7563 10.2125 30.7563H9.975C9.025 30.6375 8.43125 30.2812 8.19375 28.975C8.075 28.975 8.075 28.975 7.95625 28.8562C7.8375 28.8562 7.6 28.7375 7.48125 28.7375L7.125 28.5C6.65 28.3813 6.175 28.1437 5.81875 27.9062C4.86875 27.55 4.75 26.8375 4.75 26.4812C4.75 26.125 4.86875 25.5312 5.7 25.0562C7.125 24.225 8.19375 23.5125 9.025 22.5625C9.7375 21.7313 10.2125 20.9 10.45 20.0688C10.0938 19.8312 9.85625 19.5938 9.5 19.475C9.14375 19.2375 8.90625 19.1187 8.66875 18.8812C8.43125 18.6437 8.075 18.4062 7.8375 18.05C7.24375 17.4563 7.125 16.5063 7.48125 15.7937C7.8375 15.0813 8.55 14.6062 9.2625 14.6062H9.5C9.975 14.725 10.45 14.8438 10.8063 14.9625C10.8063 13.8938 10.8063 12.825 10.8063 11.7562C11.0438 9.025 12.5875 6.8875 15.0813 5.7C16.7437 4.86875 17.4563 4.75 19 4.75ZM19 3.5625H18.8812C17.3375 3.5625 16.3875 3.68125 14.725 4.5125C11.7562 5.9375 9.975 8.43125 9.7375 11.5187C9.7375 12.1125 9.61875 12.7063 9.61875 13.3C9.5 13.3 9.38125 13.3 9.14375 13.3C7.95625 13.3 6.8875 14.0125 6.29375 15.2C5.7 16.3875 5.9375 17.8125 6.8875 18.8812C7.24375 19.2375 7.6 19.5938 7.95625 19.8313C8.3125 19.95 8.55 20.1875 8.90625 20.425L9.025 20.5437C8.7875 21.0187 8.43125 21.4937 8.075 21.9688C7.3625 22.8 6.4125 23.5125 5.10625 24.225C3.68125 24.8188 3.5625 26.0063 3.5625 26.6C3.5625 27.6687 4.15625 28.5 5.225 28.975C5.7 29.2125 6.29375 29.45 6.65 29.5688L7.24375 29.8062H7.3625C7.95625 31.4688 9.38125 31.825 9.975 31.825H10.2125C10.45 31.9437 10.6875 32.0625 11.0438 32.0625H11.1625C12.1125 32.0625 12.9438 32.3 13.6562 32.775C14.3687 33.25 15.3188 33.8438 16.3875 34.0813C17.3375 34.3188 18.1688 34.4375 19.1188 34.4375C20.7812 34.4375 22.4438 33.9625 23.9875 32.8938C24.9375 32.3 25.8875 31.9438 26.9563 31.9438H27.075C27.4312 31.9438 27.6688 31.9437 27.9062 31.825H28.025C29.3313 31.7062 30.2812 30.875 30.7563 29.8062C31.4688 29.5688 32.0625 29.3312 32.6562 29.0938C33.6063 28.7375 34.3188 27.7875 34.4375 26.8375C34.5562 26.3625 34.5562 25.0562 33.0125 24.1062C32.775 23.8687 32.4188 23.75 32.1812 23.6313C31.7063 23.3937 31.35 23.1562 30.9937 22.8C30.0438 22.0875 29.45 21.2563 28.975 20.425C29.0938 20.425 29.0938 20.3062 29.2125 20.3062L29.5688 20.0688C30.0437 19.7125 30.5187 19.3562 30.875 19C31.9438 18.1687 32.3 16.7437 31.825 15.4375C31.35 14.1313 30.1625 13.3 28.8562 13.3H28.7375C28.6188 13.3 28.6187 13.3 28.5 13.3C28.5 12.5875 28.3813 11.9937 28.3813 11.2812C28.1437 9.5 27.4312 7.8375 26.2437 6.53125C24.3438 4.63125 21.9688 3.5625 19 3.5625Z" fill="black"/>
</g>
<defs>
<clipPath id="clip0_45_20101">
<rect width="38" height="38" fill="white"/>
</clipPath>
</defs>
</svg>
