<svg width="28" height="28" viewBox="0 0 28 28" fill="none" xmlns="http://www.w3.org/2000/svg">
<path d="M13.9993 0C6.28002 0 0 6.28001 0 13.9992C0 21.7185 6.28002 27.9984 13.9993 27.9984C21.7185 27.9984 27.9985 21.7183 27.9985 13.9992C27.9985 6.28016 21.7183 0 13.9993 0ZM21.0629 12.4322L18.2969 15.1286L18.95 18.9357C19.0178 19.3317 18.855 19.7319 18.53 19.9681C18.346 20.1016 18.1283 20.1696 17.9095 20.1696C17.7416 20.1696 17.5728 20.1295 17.4184 20.0484L13.9994 18.2509L10.5802 20.0486C10.2244 20.2356 9.79362 20.2044 9.46865 19.9682C9.14354 19.7321 8.9807 19.3318 9.04868 18.9359L9.70172 15.1287L6.93545 12.4322C6.64777 12.1517 6.54433 11.7323 6.66846 11.3502C6.79259 10.9681 7.12291 10.6896 7.52065 10.6319L11.3432 10.0764L13.0526 6.61245C13.2305 6.25215 13.5974 6.02401 13.9993 6.02401C14.4011 6.02401 14.768 6.25215 14.9459 6.61245L16.6553 10.0764L20.4779 10.6319C20.8754 10.6896 21.2059 10.9681 21.33 11.3502C21.4542 11.7323 21.3506 12.1519 21.0629 12.4322Z" fill="black"/>
</svg>
